<mxfile host="app.diagrams.net" modified="2024-04-07T12:54:41.229Z" agent="Mozilla/5.0 (Windows NT 10.0; Win64; x64) AppleWebKit/537.36 (KHTML, like Gecko) Chrome/123.0.0.0 Safari/537.36" version="23.0.2" etag="nFixumFTJ565TMxClIeu" type="github">
  <diagram name="Page-1" id="aEOGgNpj34MhsA9Gm5gu">
    <mxGraphModel>
      <root>
        <mxCell id="0" />
        <mxCell id="1" parent="0" />
      </root>
    </mxGraphModel>
  </diagram>
</mxfile>
